<svg xmlns="http://www.w3.org/2000/svg" width="5292.2246" height="1874.45" viewBox="0 0 5292.2246 1874.45"><rect x="0" y="0" width="5292.2246" height="1874.45" fill="#FFFFFF"/><defs><marker id="arrow-0" viewBox="0 0 10 10" refX="5" refY="5" markerUnits="userSpaceOnUse" markerWidth="8" markerHeight="8" orient="auto"><path d="M 0 0 L 10 5 L 0 10 z" fill="#64748B" stroke="#64748B" stroke-width="1" stroke-dasharray="1,0"/></marker><marker id="arrow-start-0" viewBox="0 0 10 10" refX="4.5" refY="5" markerUnits="userSpaceOnUse" markerWidth="8" markerHeight="8" orient="auto"><path d="M 0 5 L 10 10 L 10 0 z" fill="#64748B" stroke="#64748B" stroke-width="1" stroke-dasharray="1,0"/></marker><marker id="arrow-class-open-0" viewBox="0 0 20 14" refX="1" refY="7" markerUnits="userSpaceOnUse" markerWidth="20" markerHeight="14" orient="auto"><path d="M 1 7 L 18 13 V 1 Z" fill="none" stroke="#64748B" stroke-width="1" stroke-dasharray="1,0"/></marker><marker id="arrow-class-open-start-0" viewBox="0 0 20 14" refX="18" refY="7" markerUnits="userSpaceOnUse" markerWidth="20" markerHeight="14" orient="auto"><path d="M 1 7 L 18 13 V 1 Z" fill="none" stroke="#64748B" stroke-width="1" stroke-dasharray="1,0"/></marker><marker id="arrow-class-dep-0" viewBox="0 0 20 14" refX="13" refY="7" markerUnits="userSpaceOnUse" markerWidth="20" markerHeight="14" orient="auto"><path d="M 18 7 L 9 13 L 14 7 L 9 1 Z" fill="#64748B" stroke="#64748B" stroke-width="1" stroke-dasharray="1,0"/></marker><marker id="arrow-class-dep-start-0" viewBox="0 0 20 14" refX="6" refY="7" markerUnits="userSpaceOnUse" markerWidth="20" markerHeight="14" orient="auto"><path d="M 5 7 L 9 13 L 1 7 L 9 1 Z" fill="#64748B" stroke="#64748B" stroke-width="1" stroke-dasharray="1,0"/></marker></defs><path id="edge-0" class="edgePath" data-edge-id="edge-0" d="M 4108.366,139.100 L 4127.323,456.850" fill="none" stroke="#64748B" stroke-width="1" marker-end="url(#arrow-class-open-0)"  stroke-dasharray="2" stroke-linecap="round" stroke-linejoin="round" /><path id="edge-1" class="edgePath" data-edge-id="edge-1" d="M 4637.594,89.550 L 4637.594,506.400 L 4302.399,506.400" fill="none" stroke="#64748B" stroke-width="1" marker-end="url(#arrow-class-open-0)"  stroke-dasharray="2" stroke-linecap="round" stroke-linejoin="round" /><path id="edge-2" class="edgePath" data-edge-id="edge-2" d="M 4412.519,139.100 L 4207.323,456.850" fill="none" stroke="#64748B" stroke-width="1" marker-end="url(#arrow-class-open-0)"  stroke-dasharray="2" stroke-linecap="round" stroke-linejoin="round" /><path id="edge-3" class="edgePath" data-edge-id="edge-3" d="M 3691.997,299.750 L 3589.893,299.750 L 3589.893,456.850 L 3427.790,456.850" fill="none" stroke="#64748B" stroke-width="1" marker-end="url(#arrow-class-open-0)"  stroke-dasharray="2" stroke-linecap="round" stroke-linejoin="round" /><path id="edge-4" class="edgePath" data-edge-id="edge-4" d="M 3119.529,299.750 L 3267.790,456.850" fill="none" stroke="#64748B" stroke-width="1" marker-end="url(#arrow-class-open-0)"  stroke-dasharray="2" stroke-linecap="round" stroke-linejoin="round" /><path id="edge-5" class="edgePath" data-edge-id="edge-5" d="M 3387.627,406.850 L 3379.790,456.850" fill="none" stroke="#64748B" stroke-width="1" marker-end="url(#arrow-class-open-0)"  stroke-dasharray="2" stroke-linecap="round" stroke-linejoin="round" /><path id="edge-6" class="edgePath" data-edge-id="edge-6" d="M 1200.891,182.175 L 1914.395,182.175 L 1854.395,471.463 L 1914.395,760.750 L 2507.899,760.750" fill="none" stroke="#64748B" stroke-width="1"    stroke-linecap="round" stroke-linejoin="round" /><g transform="translate(1200.89 182.18) rotate(0.00)"><polygon points="0,0 9,6 18,0 9,-6" fill="#64748B" stroke="#64748B" stroke-width="1" stroke-linejoin="round" stroke-linecap="round"/></g><rect data-edge-id="edge-6" data-label-kind="center" x="1825.51" y="398.71" width="82.14" height="28.00" rx="2" ry="2" fill="#FFFFFF" fill-opacity="0.85" stroke="#94A3B8" stroke-opacity="0.35" stroke-width="0.8"/><g class="edgeLabel" data-edge-id="edge-6" data-label-kind="center"><text x="1866.58" y="416.21" text-anchor="middle" font-family="Inter,ui-sans-serif,system-ui,-apple-system,Segoe UI,sans-serif" font-size="14" fill="#0F172A"><tspan x="1866.58" dy="0.00">entities</tspan></text></g><path id="edge-7" class="edgePath" data-edge-id="edge-7" d="M 1200.891,134.175 L 1200.891,390.938 L 2164.806,540.938 L 3128.720,390.938 L 3128.720,947.700" fill="none" stroke="#64748B" stroke-width="1"    stroke-linecap="round" stroke-linejoin="round" /><g transform="translate(1200.89 134.18) rotate(90.00)"><polygon points="0,0 9,6 18,0 9,-6" fill="#64748B" stroke="#64748B" stroke-width="1" stroke-linejoin="round" stroke-linecap="round"/></g><rect data-edge-id="edge-7" data-label-kind="center" x="2267.32" y="503.87" width="91.40" height="28.00" rx="2" ry="2" fill="#FFFFFF" fill-opacity="0.85" stroke="#94A3B8" stroke-opacity="0.35" stroke-width="0.8"/><g class="edgeLabel" data-edge-id="edge-7" data-label-kind="center"><text x="2313.02" y="521.37" text-anchor="middle" font-family="Inter,ui-sans-serif,system-ui,-apple-system,Segoe UI,sans-serif" font-size="14" fill="#0F172A"><tspan x="2313.02" dy="0.00">functions</tspan></text></g><path id="edge-8" class="edgePath" data-edge-id="edge-8" d="M 1154.032,228.350 L 1154.032,312.600 L 1236.168,342.600 L 1318.304,312.600 L 1318.304,456.850" fill="none" stroke="#64748B" stroke-width="1"    stroke-linecap="round" stroke-linejoin="round" /><g transform="translate(1154.03 228.35) rotate(90.00)"><polygon points="0,0 9,6 18,0 9,-6" fill="#64748B" stroke="#64748B" stroke-width="1" stroke-linejoin="round" stroke-linecap="round"/></g><rect data-edge-id="edge-8" data-label-kind="center" x="1200.11" y="318.31" width="128.47" height="28.00" rx="2" ry="2" fill="#FFFFFF" fill-opacity="0.85" stroke="#94A3B8" stroke-opacity="0.35" stroke-width="0.8"/><g class="edgeLabel" data-edge-id="edge-8" data-label-kind="center"><text x="1264.35" y="335.81" text-anchor="middle" font-family="Inter,ui-sans-serif,system-ui,-apple-system,Segoe UI,sans-serif" font-size="14" fill="#0F172A"><tspan x="1264.35" dy="0.00">relationships</tspan></text></g><path id="edge-9" class="edgePath" data-edge-id="edge-9" d="M 2538.540,876.150 L 2555.367,876.150 L 2525.367,903.150 L 2555.367,930.150 L 2512.194,930.150" fill="none" stroke="#64748B" stroke-width="1"    stroke-linecap="round" stroke-linejoin="round" /><g transform="translate(2538.54 876.15) rotate(0.00)"><polygon points="0,0 9,6 18,0 9,-6" fill="#64748B" stroke="#64748B" stroke-width="1" stroke-linejoin="round" stroke-linecap="round"/></g><rect data-edge-id="edge-9" data-label-kind="center" x="2512.62" y="897.96" width="45.07" height="28.00" rx="2" ry="2" fill="#FFFFFF" fill-opacity="0.85" stroke="#94A3B8" stroke-opacity="0.35" stroke-width="0.8"/><g class="edgeLabel" data-edge-id="edge-9" data-label-kind="center"><text x="2535.16" y="915.46" text-anchor="middle" font-family="Inter,ui-sans-serif,system-ui,-apple-system,Segoe UI,sans-serif" font-size="14" fill="#0F172A"><tspan x="2535.16" dy="0.00">kind</tspan></text></g><path id="edge-10" class="edgePath" data-edge-id="edge-10" d="M 2698.540,876.150 L 2698.540,936.150 L 2773.872,919.000 L 2849.204,936.150 L 2849.204,961.850" fill="none" stroke="#64748B" stroke-width="1"    stroke-linecap="round" stroke-linejoin="round" /><g transform="translate(2698.54 876.15) rotate(90.00)"><polygon points="0,0 9,6 18,0 9,-6" fill="#64748B" stroke="#64748B" stroke-width="1" stroke-linejoin="round" stroke-linecap="round"/></g><rect data-edge-id="edge-10" data-label-kind="center" x="2725.35" y="908.81" width="63.60" height="28.00" rx="2" ry="2" fill="#FFFFFF" fill-opacity="0.85" stroke="#94A3B8" stroke-opacity="0.35" stroke-width="0.8"/><g class="edgeLabel" data-edge-id="edge-10" data-label-kind="center"><text x="2757.15" y="926.31" text-anchor="middle" font-family="Inter,ui-sans-serif,system-ui,-apple-system,Segoe UI,sans-serif" font-size="14" fill="#0F172A"><tspan x="2757.15" dy="0.00">fields</tspan></text></g><path id="edge-11" class="edgePath" data-edge-id="edge-11" d="M 2650.540,876.150 L 2650.540,892.875 L 3096.595,892.875 L 2873.568,1132.875 L 3096.595,1389.600" fill="none" stroke="#64748B" stroke-width="1"    stroke-linecap="round" stroke-linejoin="round" /><g transform="translate(2650.54 876.15) rotate(90.00)"><polygon points="0,0 9,6 18,0 9,-6" fill="#64748B" stroke="#64748B" stroke-width="1" stroke-linejoin="round" stroke-linecap="round"/></g><rect data-edge-id="edge-11" data-label-kind="center" x="2990.41" y="953.93" width="72.87" height="28.00" rx="2" ry="2" fill="#FFFFFF" fill-opacity="0.85" stroke="#94A3B8" stroke-opacity="0.35" stroke-width="0.8"/><g class="edgeLabel" data-edge-id="edge-11" data-label-kind="center"><text x="3026.85" y="971.43" text-anchor="middle" font-family="Inter,ui-sans-serif,system-ui,-apple-system,Segoe UI,sans-serif" font-size="14" fill="#0F172A"><tspan x="3026.85" dy="0.00">methods</tspan></text></g><path id="edge-12" class="edgePath" data-edge-id="edge-12" d="M 2897.204,1092.950 L 2787.212,1092.950 L 2847.212,1369.525 L 2787.212,1646.100 L 2797.220,1646.100" fill="none" stroke="#64748B" stroke-width="1"    stroke-linecap="round" stroke-linejoin="round" /><g transform="translate(2897.20 1092.95) rotate(180.00)"><polygon points="0,0 9,6 18,0 9,-6" fill="#64748B" stroke="#64748B" stroke-width="1" stroke-linejoin="round" stroke-linecap="round"/></g><rect data-edge-id="edge-12" data-label-kind="center" x="2790.91" y="1306.67" width="91.40" height="28.00" rx="2" ry="2" fill="#FFFFFF" fill-opacity="0.85" stroke="#94A3B8" stroke-opacity="0.35" stroke-width="0.8"/><g class="edgeLabel" data-edge-id="edge-12" data-label-kind="center"><text x="2836.61" y="1324.17" text-anchor="middle" font-family="Inter,ui-sans-serif,system-ui,-apple-system,Segoe UI,sans-serif" font-size="14" fill="#0F172A"><tspan x="2836.61" dy="0.00">type_info</tspan></text></g><path id="edge-13" class="edgePath" data-edge-id="edge-13" d="M 3011.899,1043.400 L 3011.899,1157.338 L 3176.595,1127.338 L 3341.291,1157.338 L 3341.291,1211.275" fill="none" stroke="#64748B" stroke-width="1"    stroke-linecap="round" stroke-linejoin="round" /><g transform="translate(3011.90 1043.40) rotate(90.00)"><polygon points="0,0 9,6 18,0 9,-6" fill="#64748B" stroke="#64748B" stroke-width="1" stroke-linejoin="round" stroke-linecap="round"/></g><rect data-edge-id="edge-13" data-label-kind="center" x="3096.75" y="1118.71" width="100.67" height="28.00" rx="2" ry="2" fill="#FFFFFF" fill-opacity="0.85" stroke="#94A3B8" stroke-opacity="0.35" stroke-width="0.8"/><g class="edgeLabel" data-edge-id="edge-13" data-label-kind="center"><text x="3147.08" y="1136.21" text-anchor="middle" font-family="Inter,ui-sans-serif,system-ui,-apple-system,Segoe UI,sans-serif" font-size="14" fill="#0F172A"><tspan x="3147.08" dy="0.00">visibility</tspan></text></g><path id="edge-14" class="edgePath" data-edge-id="edge-14" d="M 3061.899,1426.850 L 3105.899,1426.850 L 3105.899,1299.575 L 3061.899,1299.575 L 2897.204,1333.213 L 2732.508,1299.575 L 2732.508,1239.575" fill="none" stroke="#64748B" stroke-width="1"    stroke-linecap="round" stroke-linejoin="round" /><g transform="translate(3061.90 1426.85) rotate(0.00)"><polygon points="0,0 9,6 18,0 9,-6" fill="#64748B" stroke="#64748B" stroke-width="1" stroke-linejoin="round" stroke-linecap="round"/></g><rect data-edge-id="edge-14" data-label-kind="center" x="2922.94" y="1303.68" width="100.67" height="28.00" rx="2" ry="2" fill="#FFFFFF" fill-opacity="0.85" stroke="#94A3B8" stroke-opacity="0.35" stroke-width="0.8"/><g class="edgeLabel" data-edge-id="edge-14" data-label-kind="center"><text x="2973.27" y="1321.18" text-anchor="middle" font-family="Inter,ui-sans-serif,system-ui,-apple-system,Segoe UI,sans-serif" font-size="14" fill="#0F172A"><tspan x="2973.27" dy="0.00">parameters</tspan></text></g><path id="edge-15" class="edgePath" data-edge-id="edge-15" d="M 3061.899,1554.850 L 3061.899,1614.850 L 2982.962,1631.562 L 2904.024,1614.850 L 2904.024,1708.275" fill="none" stroke="#64748B" stroke-width="1"    stroke-linecap="round" stroke-linejoin="round" /><g transform="translate(3061.90 1554.85) rotate(90.00)"><polygon points="0,0 9,6 18,0 9,-6" fill="#64748B" stroke="#64748B" stroke-width="1" stroke-linejoin="round" stroke-linecap="round"/></g><rect data-edge-id="edge-15" data-label-kind="center" x="2911.64" y="1614.10" width="109.94" height="28.00" rx="2" ry="2" fill="#FFFFFF" fill-opacity="0.85" stroke="#94A3B8" stroke-opacity="0.35" stroke-width="0.8"/><g class="edgeLabel" data-edge-id="edge-15" data-label-kind="center"><text x="2966.61" y="1631.60" text-anchor="middle" font-family="Inter,ui-sans-serif,system-ui,-apple-system,Segoe UI,sans-serif" font-size="14" fill="#0F172A"><tspan x="2966.61" dy="0.00">return_type</tspan></text></g><path id="edge-16" class="edgePath" data-edge-id="edge-16" d="M 3256.595,1389.600 L 3334.318,1362.600 L 3412.041,1389.600 L 3412.041,1335.600" fill="none" stroke="#64748B" stroke-width="1"    stroke-linecap="round" stroke-linejoin="round" /><g transform="translate(3256.60 1389.60) rotate(-19.16)"><polygon points="0,0 9,6 18,0 9,-6" fill="#64748B" stroke="#64748B" stroke-width="1" stroke-linejoin="round" stroke-linecap="round"/></g><rect data-edge-id="edge-16" data-label-kind="center" x="3309.49" y="1357.46" width="100.67" height="28.00" rx="2" ry="2" fill="#FFFFFF" fill-opacity="0.85" stroke="#94A3B8" stroke-opacity="0.35" stroke-width="0.8"/><g class="edgeLabel" data-edge-id="edge-16" data-label-kind="center"><text x="3359.82" y="1374.96" text-anchor="middle" font-family="Inter,ui-sans-serif,system-ui,-apple-system,Segoe UI,sans-serif" font-size="14" fill="#0F172A"><tspan x="3359.82" dy="0.00">visibility</tspan></text></g><path id="edge-17" class="edgePath" data-edge-id="edge-17" d="M 2645.976,1264.200 L 2629.598,1264.200 L 2689.598,1455.150 L 2629.598,1646.100 L 2733.220,1646.100" fill="none" stroke="#64748B" stroke-width="1"    stroke-linecap="round" stroke-linejoin="round" /><g transform="translate(2645.98 1264.20) rotate(180.00)"><polygon points="0,0 9,6 18,0 9,-6" fill="#64748B" stroke="#64748B" stroke-width="1" stroke-linejoin="round" stroke-linecap="round"/></g><rect data-edge-id="edge-17" data-label-kind="center" x="2630.82" y="1482.77" width="91.40" height="28.00" rx="2" ry="2" fill="#FFFFFF" fill-opacity="0.85" stroke="#94A3B8" stroke-opacity="0.35" stroke-width="0.8"/><g class="edgeLabel" data-edge-id="edge-17" data-label-kind="center"><text x="2676.52" y="1500.27" text-anchor="middle" font-family="Inter,ui-sans-serif,system-ui,-apple-system,Segoe UI,sans-serif" font-size="14" fill="#0F172A"><tspan x="2676.52" dy="0.00">type_info</tspan></text></g><path id="edge-18" class="edgePath" data-edge-id="edge-18" d="M 3128.720,1043.700 L 3128.720,899.637 L 2930.615,1109.637 L 2732.508,899.637 L 2732.508,1175.575" fill="none" stroke="#64748B" stroke-width="1"    stroke-linecap="round" stroke-linejoin="round" /><g transform="translate(3128.72 1043.70) rotate(-90.00)"><polygon points="0,0 9,6 18,0 9,-6" fill="#64748B" stroke="#64748B" stroke-width="1" stroke-linejoin="round" stroke-linecap="round"/></g><rect data-edge-id="edge-18" data-label-kind="center" x="2835.03" y="1047.67" width="100.67" height="28.00" rx="2" ry="2" fill="#FFFFFF" fill-opacity="0.85" stroke="#94A3B8" stroke-opacity="0.35" stroke-width="0.8"/><g class="edgeLabel" data-edge-id="edge-18" data-label-kind="center"><text x="2885.37" y="1065.17" text-anchor="middle" font-family="Inter,ui-sans-serif,system-ui,-apple-system,Segoe UI,sans-serif" font-size="14" fill="#0F172A"><tspan x="2885.37" dy="0.00">parameters</tspan></text></g><path id="edge-19" class="edgePath" data-edge-id="edge-19" d="M 3179.416,1096.950 L 3179.416,1341.525 L 3020.318,1371.525 L 2861.220,1341.525 L 2861.220,1646.100" fill="none" stroke="#64748B" stroke-width="1"    stroke-linecap="round" stroke-linejoin="round" /><g transform="translate(3179.42 1096.95) rotate(90.00)"><polygon points="0,0 9,6 18,0 9,-6" fill="#64748B" stroke="#64748B" stroke-width="1" stroke-linejoin="round" stroke-linecap="round"/></g><rect data-edge-id="edge-19" data-label-kind="center" x="2935.87" y="1351.97" width="109.94" height="28.00" rx="2" ry="2" fill="#FFFFFF" fill-opacity="0.85" stroke="#94A3B8" stroke-opacity="0.35" stroke-width="0.8"/><g class="edgeLabel" data-edge-id="edge-19" data-label-kind="center"><text x="2990.84" y="1369.47" text-anchor="middle" font-family="Inter,ui-sans-serif,system-ui,-apple-system,Segoe UI,sans-serif" font-size="14" fill="#0F172A"><tspan x="2990.84" dy="0.00">return_type</tspan></text></g><path id="edge-20" class="edgePath" data-edge-id="edge-20" d="M 3275.416,1096.950 L 3343.729,1123.950 L 3412.041,1096.950 L 3412.041,1150.950" fill="none" stroke="#64748B" stroke-width="1"    stroke-linecap="round" stroke-linejoin="round" /><g transform="translate(3275.42 1096.95) rotate(21.57)"><polygon points="0,0 9,6 18,0 9,-6" fill="#64748B" stroke="#64748B" stroke-width="1" stroke-linejoin="round" stroke-linecap="round"/></g><rect data-edge-id="edge-20" data-label-kind="center" x="3318.50" y="1100.03" width="100.67" height="28.00" rx="2" ry="2" fill="#FFFFFF" fill-opacity="0.85" stroke="#94A3B8" stroke-opacity="0.35" stroke-width="0.8"/><g class="edgeLabel" data-edge-id="edge-20" data-label-kind="center"><text x="3368.84" y="1117.53" text-anchor="middle" font-family="Inter,ui-sans-serif,system-ui,-apple-system,Segoe UI,sans-serif" font-size="14" fill="#0F172A"><tspan x="3368.84" dy="0.00">visibility</tspan></text></g><path id="edge-21" class="edgePath" data-edge-id="edge-21" d="M 3323.416,894.450 L 3401.139,867.450 L 3478.862,894.450 L 3478.862,840.450" fill="none" stroke="#64748B" stroke-width="1"    stroke-linecap="round" stroke-linejoin="round" /><g transform="translate(3323.42 894.45) rotate(-19.16)"><polygon points="0,0 9,6 18,0 9,-6" fill="#64748B" stroke="#64748B" stroke-width="1" stroke-linejoin="round" stroke-linecap="round"/></g><rect data-edge-id="edge-21" data-label-kind="center" x="3399.48" y="862.31" width="54.34" height="28.00" rx="2" ry="2" fill="#FFFFFF" fill-opacity="0.85" stroke="#94A3B8" stroke-opacity="0.35" stroke-width="0.8"/><g class="edgeLabel" data-edge-id="edge-21" data-label-kind="center"><text x="3426.64" y="879.81" text-anchor="middle" font-family="Inter,ui-sans-serif,system-ui,-apple-system,Segoe UI,sans-serif" font-size="14" fill="#0F172A"><tspan x="3426.64" dy="0.00">calls</tspan></text></g><path id="edge-22" class="edgePath" data-edge-id="edge-22" d="M 1074.032,228.350 L 1157.608,456.850" fill="none" stroke="#64748B" stroke-width="1" marker-end="url(#arrow-class-open-0)"  stroke-dasharray="2" stroke-linecap="round" stroke-linejoin="round" /><path id="edge-23" class="edgePath" data-edge-id="edge-23" d="M 2769.823,659.800 L 2702.344,632.800 L 2634.866,659.800 L 2634.866,605.800" fill="none" stroke="#64748B" stroke-width="1"    stroke-linecap="round" stroke-linejoin="round" /><g transform="translate(2769.82 659.80) rotate(-158.19)"><polygon points="0,0 9,6 18,0 9,-6" fill="#64748B" stroke="#64748B" stroke-width="1" stroke-linejoin="round" stroke-linecap="round"/></g><rect data-edge-id="edge-23" data-label-kind="center" x="2640.84" y="628.83" width="72.87" height="28.00" rx="2" ry="2" fill="#FFFFFF" fill-opacity="0.85" stroke="#94A3B8" stroke-opacity="0.35" stroke-width="0.8"/><g class="edgeLabel" data-edge-id="edge-23" data-label-kind="center"><text x="2677.28" y="646.33" text-anchor="middle" font-family="Inter,ui-sans-serif,system-ui,-apple-system,Segoe UI,sans-serif" font-size="14" fill="#0F172A"><tspan x="2677.28" dy="0.00">diagram</tspan></text></g><path id="edge-24" class="edgePath" data-edge-id="edge-24" d="M 2929.823,659.800 L 2997.301,632.800 L 3064.779,659.800 L 3064.779,605.800" fill="none" stroke="#64748B" stroke-width="1"    stroke-linecap="round" stroke-linejoin="round" /><g transform="translate(2929.82 659.80) rotate(-21.81)"><polygon points="0,0 9,6 18,0 9,-6" fill="#64748B" stroke="#64748B" stroke-width="1" stroke-linejoin="round" stroke-linecap="round"/></g><rect data-edge-id="edge-24" data-label-kind="center" x="2981.30" y="628.83" width="82.14" height="28.00" rx="2" ry="2" fill="#FFFFFF" fill-opacity="0.85" stroke="#94A3B8" stroke-opacity="0.35" stroke-width="0.8"/><g class="edgeLabel" data-edge-id="edge-24" data-label-kind="center"><text x="3022.37" y="646.33" text-anchor="middle" font-family="Inter,ui-sans-serif,system-ui,-apple-system,Segoe UI,sans-serif" font-size="14" fill="#0F172A"><tspan x="3022.37" dy="0.00">language</tspan></text></g><rect x="3408.11" y="709.35" width="237.50" height="131.10" rx="3" ry="3" fill="#F8FAFC" stroke="#94A3B8" stroke-width="1" stroke-linejoin="round" stroke-linecap="round"/><line x1="3414.11" y1="748.30" x2="3639.61" y2="748.30" stroke="#94A3B8" stroke-width="1.0"/><text x="3526.86" y="735.35" text-anchor="middle" font-family="Inter,ui-sans-serif,system-ui,-apple-system,Segoe UI,sans-serif" font-size="14" fill="#0F172A"><tspan x="3526.86" dy="0.00" font-weight="600">CallExpr</tspan></text><text x="3438.11" y="771.05" text-anchor="start" font-family="Inter,ui-sans-serif,system-ui,-apple-system,Segoe UI,sans-serif" font-size="14" fill="#0F172A"><tspan x="3438.11" dy="0.00">&lt;&lt;Struct&gt;&gt;</tspan><tspan x="3438.11" dy="17.85">+String receiver</tspan><tspan x="3438.11" dy="17.85">+String method</tspan><tspan x="3438.11" dy="17.85">+List~String~ arguments</tspan></text><rect x="230.63" y="8.00" width="172.63" height="148.95" rx="3" ry="3" fill="#F8FAFC" stroke="#94A3B8" stroke-width="1" stroke-linejoin="round" stroke-linecap="round"/><line x1="236.63" y1="46.95" x2="397.26" y2="46.95" stroke="#94A3B8" stroke-width="1.0"/><text x="316.95" y="34.00" text-anchor="middle" font-family="Inter,ui-sans-serif,system-ui,-apple-system,Segoe UI,sans-serif" font-size="14" fill="#0F172A"><tspan x="316.95" dy="0.00" font-weight="600">Cardinality</tspan></text><text x="260.63" y="69.70" text-anchor="start" font-family="Inter,ui-sans-serif,system-ui,-apple-system,Segoe UI,sans-serif" font-size="14" fill="#0F172A"><tspan x="260.63" dy="0.00">&lt;&lt;Enumeration&gt;&gt;</tspan><tspan x="260.63" dy="17.85">One</tspan><tspan x="260.63" dy="17.85">ZeroOrOne</tspan><tspan x="260.63" dy="17.85">OneOrMore</tspan><tspan x="260.63" dy="17.85">ZeroOrMore</tspan></text><rect x="4973.75" y="8.00" width="310.48" height="398.85" rx="3" ry="3" fill="#F8FAFC" stroke="#94A3B8" stroke-width="1" stroke-linejoin="round" stroke-linecap="round"/><line x1="4979.75" y1="46.95" x2="5278.22" y2="46.95" stroke="#94A3B8" stroke-width="1.0"/><line x1="4979.75" y1="82.65" x2="5278.22" y2="82.65" stroke="#94A3B8" stroke-width="1.0"/><text x="5128.99" y="34.00" text-anchor="middle" font-family="Inter,ui-sans-serif,system-ui,-apple-system,Segoe UI,sans-serif" font-size="14" fill="#0F172A"><tspan x="5128.99" dy="0.00" font-weight="600">ClassDiagramEmitter</tspan></text><text x="5003.75" y="69.70" text-anchor="start" font-family="Inter,ui-sans-serif,system-ui,-apple-system,Segoe UI,sans-serif" font-size="14" fill="#0F172A"><tspan x="5003.75" dy="0.00">&lt;&lt;Struct&gt;&gt;</tspan><tspan x="5003.75" dy="35.70">-namespace_from_path(path</tspan><tspan x="5003.75" dy="17.85">str) : String$</tspan><tspan x="5003.75" dy="17.85">-emit_entity(output String,</tspan><tspan x="5003.75" dy="17.85">entity Entity, indent str) : $</tspan><tspan x="5003.75" dy="17.85">-annotation_for_kind(kind</tspan><tspan x="5003.75" dy="17.85">EntityKind) : str$</tspan><tspan x="5003.75" dy="17.85">-emit_field(output String, field</tspan><tspan x="5003.75" dy="17.85">Field, is_enum bool, indent</tspan><tspan x="5003.75" dy="17.85">str) : $</tspan><tspan x="5003.75" dy="17.85">-emit_method(output String,</tspan><tspan x="5003.75" dy="17.85">method Method, indent str) :</tspan><tspan x="5003.75" dy="17.85">$</tspan><tspan x="5003.75" dy="17.85">-emit_relationship(output</tspan><tspan x="5003.75" dy="17.85">String, rel Relationship) : $</tspan><tspan x="5003.75" dy="17.85">-emit(model CodeModel,</tspan><tspan x="5003.75" dy="17.85">theme MermaidTheme) :</tspan><tspan x="5003.75" dy="17.85">String</tspan></text><rect x="2739.18" y="659.80" width="221.28" height="202.50" rx="3" ry="3" fill="#F8FAFC" stroke="#94A3B8" stroke-width="1" stroke-linejoin="round" stroke-linecap="round"/><line x1="2745.18" y1="698.75" x2="2954.46" y2="698.75" stroke="#94A3B8" stroke-width="1.0"/><text x="2849.82" y="685.80" text-anchor="middle" font-family="Inter,ui-sans-serif,system-ui,-apple-system,Segoe UI,sans-serif" font-size="14" fill="#0F172A"><tspan x="2849.82" dy="0.00" font-weight="600">Cli</tspan></text><text x="2769.18" y="721.50" text-anchor="start" font-family="Inter,ui-sans-serif,system-ui,-apple-system,Segoe UI,sans-serif" font-size="14" fill="#0F172A"><tspan x="2769.18" dy="0.00">&lt;&lt;Struct&gt;&gt;</tspan><tspan x="2769.18" dy="17.85">-PathBuf path</tspan><tspan x="2769.18" dy="17.85">-DiagramArg diagram</tspan><tspan x="2769.18" dy="17.85">-LanguageArg language</tspan><tspan x="2769.18" dy="17.85">-String entry</tspan><tspan x="2769.18" dy="17.85">-PathBuf output</tspan><tspan x="2769.18" dy="17.85">-String theme</tspan><tspan x="2769.18" dy="17.85">-String format</tspan></text><rect x="947.17" y="8.00" width="253.72" height="220.35" rx="3" ry="3" fill="#F8FAFC" stroke="#94A3B8" stroke-width="1" stroke-linejoin="round" stroke-linecap="round"/><line x1="953.17" y1="46.95" x2="1194.89" y2="46.95" stroke="#94A3B8" stroke-width="1.0"/><line x1="953.17" y1="154.05" x2="1194.89" y2="154.05" stroke="#94A3B8" stroke-width="1.0"/><text x="1074.03" y="34.00" text-anchor="middle" font-family="Inter,ui-sans-serif,system-ui,-apple-system,Segoe UI,sans-serif" font-size="14" fill="#0F172A"><tspan x="1074.03" dy="0.00" font-weight="600">CodeModel</tspan></text><text x="977.17" y="69.70" text-anchor="start" font-family="Inter,ui-sans-serif,system-ui,-apple-system,Segoe UI,sans-serif" font-size="14" fill="#0F172A"><tspan x="977.17" dy="0.00">&lt;&lt;Struct&gt;&gt;</tspan><tspan x="977.17" dy="17.85">+List~Entity~ entities</tspan><tspan x="977.17" dy="17.85">+List~Function~ functions</tspan><tspan x="977.17" dy="17.85">+List~Relationship~</tspan><tspan x="977.17" dy="17.85">relationships</tspan><tspan x="977.17" dy="35.70">+new() : Self$</tspan><tspan x="977.17" dy="17.85">+merge(other CodeModel)</tspan><tspan x="977.17" dy="17.85">-default() : Self$</tspan></text><rect x="1133.23" y="456.85" width="80.76" height="91.00" rx="3" ry="3" fill="#F8FAFC" stroke="#94A3B8" stroke-width="1" stroke-linejoin="round" stroke-linecap="round"/><text x="1173.61" y="505.85" text-anchor="middle" font-family="Inter,ui-sans-serif,system-ui,-apple-system,Segoe UI,sans-serif" font-size="14" fill="#0F172A"><tspan x="1173.61" dy="0.00">Default</tspan></text><rect x="2516.55" y="456.85" width="172.63" height="148.95" rx="3" ry="3" fill="#F8FAFC" stroke="#94A3B8" stroke-width="1" stroke-linejoin="round" stroke-linecap="round"/><line x1="2522.55" y1="495.80" x2="2683.18" y2="495.80" stroke="#94A3B8" stroke-width="1.0"/><text x="2602.87" y="482.85" text-anchor="middle" font-family="Inter,ui-sans-serif,system-ui,-apple-system,Segoe UI,sans-serif" font-size="14" fill="#0F172A"><tspan x="2602.87" dy="0.00" font-weight="600">DiagramArg</tspan></text><text x="2546.55" y="518.55" text-anchor="start" font-family="Inter,ui-sans-serif,system-ui,-apple-system,Segoe UI,sans-serif" font-size="14" fill="#0F172A"><tspan x="2546.55" dy="0.00">&lt;&lt;Enumeration&gt;&gt;</tspan><tspan x="2546.55" dy="17.85">Class</tspan><tspan x="2546.55" dy="17.85">Er</tspan><tspan x="2546.55" dy="17.85">Sequence</tspan><tspan x="2546.55" dy="17.85">Zenuml</tspan></text><rect x="3233.09" y="456.85" width="229.39" height="148.95" rx="3" ry="3" fill="#F8FAFC" stroke="#94A3B8" stroke-width="1" stroke-linejoin="round" stroke-linecap="round"/><line x1="3239.09" y1="495.80" x2="3456.49" y2="495.80" stroke="#94A3B8" stroke-width="1.0"/><line x1="3239.09" y1="531.50" x2="3456.49" y2="531.50" stroke="#94A3B8" stroke-width="1.0"/><text x="3347.79" y="482.85" text-anchor="middle" font-family="Inter,ui-sans-serif,system-ui,-apple-system,Segoe UI,sans-serif" font-size="14" fill="#0F172A"><tspan x="3347.79" dy="0.00" font-weight="600">DiagramEmitter</tspan></text><text x="3263.09" y="518.55" text-anchor="start" font-family="Inter,ui-sans-serif,system-ui,-apple-system,Segoe UI,sans-serif" font-size="14" fill="#0F172A"><tspan x="3263.09" dy="0.00">&lt;&lt;Interface&gt;&gt;</tspan><tspan x="3263.09" dy="35.70">-emit(model CodeModel,</tspan><tspan x="3263.09" dy="17.85">theme MermaidTheme) :</tspan><tspan x="3263.09" dy="17.85">String*</tspan></text><rect x="8.00" y="8.00" width="172.63" height="148.95" rx="3" ry="3" fill="#F8FAFC" stroke="#94A3B8" stroke-width="1" stroke-linejoin="round" stroke-linecap="round"/><line x1="14.00" y1="46.95" x2="174.63" y2="46.95" stroke="#94A3B8" stroke-width="1.0"/><text x="94.32" y="34.00" text-anchor="middle" font-family="Inter,ui-sans-serif,system-ui,-apple-system,Segoe UI,sans-serif" font-size="14" fill="#0F172A"><tspan x="94.32" dy="0.00" font-weight="600">DiagramType</tspan></text><text x="38.00" y="69.70" text-anchor="start" font-family="Inter,ui-sans-serif,system-ui,-apple-system,Segoe UI,sans-serif" font-size="14" fill="#0F172A"><tspan x="38.00" dy="0.00">&lt;&lt;Enumeration&gt;&gt;</tspan><tspan x="38.00" dy="17.85">Class</tspan><tspan x="38.00" dy="17.85">Er</tspan><tspan x="38.00" dy="17.85">Sequence</tspan><tspan x="38.00" dy="17.85">Zenuml</tspan></text><rect x="2507.90" y="709.35" width="221.28" height="166.80" rx="3" ry="3" fill="#F8FAFC" stroke="#94A3B8" stroke-width="1" stroke-linejoin="round" stroke-linecap="round"/><line x1="2513.90" y1="748.30" x2="2723.18" y2="748.30" stroke="#94A3B8" stroke-width="1.0"/><text x="2618.54" y="735.35" text-anchor="middle" font-family="Inter,ui-sans-serif,system-ui,-apple-system,Segoe UI,sans-serif" font-size="14" fill="#0F172A"><tspan x="2618.54" dy="0.00" font-weight="600">Entity</tspan></text><text x="2537.90" y="771.05" text-anchor="start" font-family="Inter,ui-sans-serif,system-ui,-apple-system,Segoe UI,sans-serif" font-size="14" fill="#0F172A"><tspan x="2537.90" dy="0.00">&lt;&lt;Struct&gt;&gt;</tspan><tspan x="2537.90" dy="17.85">+String name</tspan><tspan x="2537.90" dy="17.85">+EntityKind kind</tspan><tspan x="2537.90" dy="17.85">+List~Field~ fields</tspan><tspan x="2537.90" dy="17.85">+List~Method~ methods</tspan><tspan x="2537.90" dy="17.85">+String source_file</tspan></text><rect x="2393.88" y="930.15" width="172.63" height="184.65" rx="3" ry="3" fill="#F8FAFC" stroke="#94A3B8" stroke-width="1" stroke-linejoin="round" stroke-linecap="round"/><line x1="2399.88" y1="969.10" x2="2560.51" y2="969.10" stroke="#94A3B8" stroke-width="1.0"/><text x="2480.19" y="956.15" text-anchor="middle" font-family="Inter,ui-sans-serif,system-ui,-apple-system,Segoe UI,sans-serif" font-size="14" fill="#0F172A"><tspan x="2480.19" dy="0.00" font-weight="600">EntityKind</tspan></text><text x="2423.88" y="991.85" text-anchor="start" font-family="Inter,ui-sans-serif,system-ui,-apple-system,Segoe UI,sans-serif" font-size="14" fill="#0F172A"><tspan x="2423.88" dy="0.00">&lt;&lt;Enumeration&gt;&gt;</tspan><tspan x="2423.88" dy="17.85">Struct</tspan><tspan x="2423.88" dy="17.85">Enum</tspan><tspan x="2423.88" dy="17.85">Interface</tspan><tspan x="2423.88" dy="17.85">Class</tspan><tspan x="2423.88" dy="17.85">Trait</tspan><tspan x="2423.88" dy="17.85">TypeAlias</tspan></text><rect x="3596.70" y="8.00" width="318.59" height="291.75" rx="3" ry="3" fill="#F8FAFC" stroke="#94A3B8" stroke-width="1" stroke-linejoin="round" stroke-linecap="round"/><line x1="3602.70" y1="46.95" x2="3909.29" y2="46.95" stroke="#94A3B8" stroke-width="1.0"/><line x1="3602.70" y1="82.65" x2="3909.29" y2="82.65" stroke="#94A3B8" stroke-width="1.0"/><text x="3756.00" y="34.00" text-anchor="middle" font-family="Inter,ui-sans-serif,system-ui,-apple-system,Segoe UI,sans-serif" font-size="14" fill="#0F172A"><tspan x="3756.00" dy="0.00" font-weight="600">ErDiagramEmitter</tspan></text><text x="3626.70" y="69.70" text-anchor="start" font-family="Inter,ui-sans-serif,system-ui,-apple-system,Segoe UI,sans-serif" font-size="14" fill="#0F172A"><tspan x="3626.70" dy="0.00">&lt;&lt;Struct&gt;&gt;</tspan><tspan x="3626.70" dy="35.70">-emit_entity(output String,</tspan><tspan x="3626.70" dy="17.85">entity Entity) : $</tspan><tspan x="3626.70" dy="17.85">-emit_field(output String, field</tspan><tspan x="3626.70" dy="17.85">Field, is_enum bool) : $</tspan><tspan x="3626.70" dy="17.85">-cardinality_notation(cardinality</tspan><tspan x="3626.70" dy="17.85">Cardinality) : str$</tspan><tspan x="3626.70" dy="17.85">-emit_relationship(output</tspan><tspan x="3626.70" dy="17.85">String, rel Relationship) : $</tspan><tspan x="3626.70" dy="17.85">-emit(model CodeModel,</tspan><tspan x="3626.70" dy="17.85">theme MermaidTheme) :</tspan><tspan x="3626.70" dy="17.85">String</tspan></text><rect x="2782.51" y="961.85" width="229.39" height="131.10" rx="3" ry="3" fill="#F8FAFC" stroke="#94A3B8" stroke-width="1" stroke-linejoin="round" stroke-linecap="round"/><line x1="2788.51" y1="1000.80" x2="3005.90" y2="1000.80" stroke="#94A3B8" stroke-width="1.0"/><text x="2897.20" y="987.85" text-anchor="middle" font-family="Inter,ui-sans-serif,system-ui,-apple-system,Segoe UI,sans-serif" font-size="14" fill="#0F172A"><tspan x="2897.20" dy="0.00" font-weight="600">Field</tspan></text><text x="2812.51" y="1023.55" text-anchor="start" font-family="Inter,ui-sans-serif,system-ui,-apple-system,Segoe UI,sans-serif" font-size="14" fill="#0F172A"><tspan x="2812.51" dy="0.00">&lt;&lt;Struct&gt;&gt;</tspan><tspan x="2812.51" dy="17.85">+String name</tspan><tspan x="2812.51" dy="17.85">+TypeInfo type_info</tspan><tspan x="2812.51" dy="17.85">+Visibility visibility</tspan></text><rect x="3128.72" y="894.45" width="229.39" height="202.50" rx="3" ry="3" fill="#F8FAFC" stroke="#94A3B8" stroke-width="1" stroke-linejoin="round" stroke-linecap="round"/><line x1="3134.72" y1="933.40" x2="3352.11" y2="933.40" stroke="#94A3B8" stroke-width="1.0"/><text x="3243.42" y="920.45" text-anchor="middle" font-family="Inter,ui-sans-serif,system-ui,-apple-system,Segoe UI,sans-serif" font-size="14" fill="#0F172A"><tspan x="3243.42" dy="0.00" font-weight="600">Function</tspan></text><text x="3158.72" y="956.15" text-anchor="start" font-family="Inter,ui-sans-serif,system-ui,-apple-system,Segoe UI,sans-serif" font-size="14" fill="#0F172A"><tspan x="3158.72" dy="0.00">&lt;&lt;Struct&gt;&gt;</tspan><tspan x="3158.72" dy="17.85">+String name</tspan><tspan x="3158.72" dy="17.85">+List~Parameter~</tspan><tspan x="3158.72" dy="17.85">parameters</tspan><tspan x="3158.72" dy="17.85">+TypeInfo return_type</tspan><tspan x="3158.72" dy="17.85">+Visibility visibility</tspan><tspan x="3158.72" dy="17.85">+List~CallExpr~ calls</tspan><tspan x="3158.72" dy="17.85">+String source_file</tspan></text><rect x="3965.29" y="8.00" width="286.15" height="131.10" rx="3" ry="3" fill="#F8FAFC" stroke="#94A3B8" stroke-width="1" stroke-linejoin="round" stroke-linecap="round"/><line x1="3971.29" y1="46.95" x2="4245.44" y2="46.95" stroke="#94A3B8" stroke-width="1.0"/><line x1="3971.29" y1="82.65" x2="4245.44" y2="82.65" stroke="#94A3B8" stroke-width="1.0"/><text x="4108.37" y="34.00" text-anchor="middle" font-family="Inter,ui-sans-serif,system-ui,-apple-system,Segoe UI,sans-serif" font-size="14" fill="#0F172A"><tspan x="4108.37" dy="0.00" font-weight="600">GoParser</tspan></text><text x="3995.29" y="69.70" text-anchor="start" font-family="Inter,ui-sans-serif,system-ui,-apple-system,Segoe UI,sans-serif" font-size="14" fill="#0F172A"><tspan x="3995.29" dy="0.00">&lt;&lt;Struct&gt;&gt;</tspan><tspan x="3995.29" dy="35.70">-parse_file(path Path, source</tspan><tspan x="3995.29" dy="17.85">str) : Result~CodeModel~</tspan></text><rect x="453.26" y="8.00" width="172.63" height="131.10" rx="3" ry="3" fill="#F8FAFC" stroke="#94A3B8" stroke-width="1" stroke-linejoin="round" stroke-linecap="round"/><line x1="459.26" y1="46.95" x2="619.89" y2="46.95" stroke="#94A3B8" stroke-width="1.0"/><text x="539.58" y="34.00" text-anchor="middle" font-family="Inter,ui-sans-serif,system-ui,-apple-system,Segoe UI,sans-serif" font-size="14" fill="#0F172A"><tspan x="539.58" dy="0.00" font-weight="600">Language</tspan></text><text x="483.26" y="69.70" text-anchor="start" font-family="Inter,ui-sans-serif,system-ui,-apple-system,Segoe UI,sans-serif" font-size="14" fill="#0F172A"><tspan x="483.26" dy="0.00">&lt;&lt;Enumeration&gt;&gt;</tspan><tspan x="483.26" dy="17.85">Rust</tspan><tspan x="483.26" dy="17.85">Go</tspan><tspan x="483.26" dy="17.85">TypeScript</tspan></text><rect x="3010.46" y="456.85" width="172.63" height="148.95" rx="3" ry="3" fill="#F8FAFC" stroke="#94A3B8" stroke-width="1" stroke-linejoin="round" stroke-linecap="round"/><line x1="3016.46" y1="495.80" x2="3177.09" y2="495.80" stroke="#94A3B8" stroke-width="1.0"/><text x="3096.78" y="482.85" text-anchor="middle" font-family="Inter,ui-sans-serif,system-ui,-apple-system,Segoe UI,sans-serif" font-size="14" fill="#0F172A"><tspan x="3096.78" dy="0.00" font-weight="600">LanguageArg</tspan></text><text x="3040.46" y="518.55" text-anchor="start" font-family="Inter,ui-sans-serif,system-ui,-apple-system,Segoe UI,sans-serif" font-size="14" fill="#0F172A"><tspan x="3040.46" dy="0.00">&lt;&lt;Enumeration&gt;&gt;</tspan><tspan x="3040.46" dy="17.85">Auto</tspan><tspan x="3040.46" dy="17.85">Rust</tspan><tspan x="3040.46" dy="17.85">Go</tspan><tspan x="3040.46" dy="17.85">TypeScript</tspan></text><rect x="4016.25" y="456.85" width="286.15" height="131.10" rx="3" ry="3" fill="#F8FAFC" stroke="#94A3B8" stroke-width="1" stroke-linejoin="round" stroke-linecap="round"/><line x1="4022.25" y1="495.80" x2="4296.40" y2="495.80" stroke="#94A3B8" stroke-width="1.0"/><line x1="4022.25" y1="531.50" x2="4296.40" y2="531.50" stroke="#94A3B8" stroke-width="1.0"/><text x="4159.32" y="482.85" text-anchor="middle" font-family="Inter,ui-sans-serif,system-ui,-apple-system,Segoe UI,sans-serif" font-size="14" fill="#0F172A"><tspan x="4159.32" dy="0.00" font-weight="600">LanguageParser</tspan></text><text x="4046.25" y="518.55" text-anchor="start" font-family="Inter,ui-sans-serif,system-ui,-apple-system,Segoe UI,sans-serif" font-size="14" fill="#0F172A"><tspan x="4046.25" dy="0.00">&lt;&lt;Interface&gt;&gt;</tspan><tspan x="4046.25" dy="35.70">-parse_file(path Path, source</tspan><tspan x="4046.25" dy="17.85">str) : Result~CodeModel~*</tspan></text><rect x="675.89" y="8.00" width="221.28" height="148.95" rx="3" ry="3" fill="#F8FAFC" stroke="#94A3B8" stroke-width="1" stroke-linejoin="round" stroke-linecap="round"/><line x1="681.89" y1="46.95" x2="891.17" y2="46.95" stroke="#94A3B8" stroke-width="1.0"/><line x1="681.89" y1="118.35" x2="891.17" y2="118.35" stroke="#94A3B8" stroke-width="1.0"/><text x="786.53" y="34.00" text-anchor="middle" font-family="Inter,ui-sans-serif,system-ui,-apple-system,Segoe UI,sans-serif" font-size="14" fill="#0F172A"><tspan x="786.53" dy="0.00" font-weight="600">MermaidTheme</tspan></text><text x="705.89" y="69.70" text-anchor="start" font-family="Inter,ui-sans-serif,system-ui,-apple-system,Segoe UI,sans-serif" font-size="14" fill="#0F172A"><tspan x="705.89" dy="0.00">&lt;&lt;Enumeration&gt;&gt;</tspan><tspan x="705.89" dy="17.85">Default</tspan><tspan x="705.89" dy="17.85">Named</tspan><tspan x="705.89" dy="35.70">+directive() : String</tspan></text><rect x="3061.90" y="1389.60" width="229.39" height="202.50" rx="3" ry="3" fill="#F8FAFC" stroke="#94A3B8" stroke-width="1" stroke-linejoin="round" stroke-linecap="round"/><line x1="3067.90" y1="1428.55" x2="3285.29" y2="1428.55" stroke="#94A3B8" stroke-width="1.0"/><text x="3176.59" y="1415.60" text-anchor="middle" font-family="Inter,ui-sans-serif,system-ui,-apple-system,Segoe UI,sans-serif" font-size="14" fill="#0F172A"><tspan x="3176.59" dy="0.00" font-weight="600">Method</tspan></text><text x="3091.90" y="1451.30" text-anchor="start" font-family="Inter,ui-sans-serif,system-ui,-apple-system,Segoe UI,sans-serif" font-size="14" fill="#0F172A"><tspan x="3091.90" dy="0.00">&lt;&lt;Struct&gt;&gt;</tspan><tspan x="3091.90" dy="17.85">+String name</tspan><tspan x="3091.90" dy="17.85">+List~Parameter~</tspan><tspan x="3091.90" dy="17.85">parameters</tspan><tspan x="3091.90" dy="17.85">+TypeInfo return_type</tspan><tspan x="3091.90" dy="17.85">+Visibility visibility</tspan><tspan x="3091.90" dy="17.85">+bool is_static</tspan><tspan x="3091.90" dy="17.85">+bool is_abstract</tspan></text><rect x="2527.44" y="1150.95" width="205.07" height="113.25" rx="3" ry="3" fill="#F8FAFC" stroke="#94A3B8" stroke-width="1" stroke-linejoin="round" stroke-linecap="round"/><line x1="2533.44" y1="1189.90" x2="2726.51" y2="1189.90" stroke="#94A3B8" stroke-width="1.0"/><text x="2629.98" y="1176.95" text-anchor="middle" font-family="Inter,ui-sans-serif,system-ui,-apple-system,Segoe UI,sans-serif" font-size="14" fill="#0F172A"><tspan x="2629.98" dy="0.00" font-weight="600">Parameter</tspan></text><text x="2557.44" y="1212.65" text-anchor="start" font-family="Inter,ui-sans-serif,system-ui,-apple-system,Segoe UI,sans-serif" font-size="14" fill="#0F172A"><tspan x="2557.44" dy="0.00">&lt;&lt;Struct&gt;&gt;</tspan><tspan x="2557.44" dy="17.85">+String name</tspan><tspan x="2557.44" dy="17.85">+TypeInfo type_info</tspan></text><rect x="1263.99" y="456.85" width="172.63" height="166.80" rx="3" ry="3" fill="#F8FAFC" stroke="#94A3B8" stroke-width="1" stroke-linejoin="round" stroke-linecap="round"/><line x1="1269.99" y1="495.80" x2="1430.62" y2="495.80" stroke="#94A3B8" stroke-width="1.0"/><text x="1350.30" y="482.85" text-anchor="middle" font-family="Inter,ui-sans-serif,system-ui,-apple-system,Segoe UI,sans-serif" font-size="14" fill="#0F172A"><tspan x="1350.30" dy="0.00" font-weight="600">Relationship</tspan></text><text x="1293.99" y="518.55" text-anchor="start" font-family="Inter,ui-sans-serif,system-ui,-apple-system,Segoe UI,sans-serif" font-size="14" fill="#0F172A"><tspan x="1293.99" dy="0.00">&lt;&lt;Enumeration&gt;&gt;</tspan><tspan x="1293.99" dy="17.85">Inheritance</tspan><tspan x="1293.99" dy="17.85">Implementation</tspan><tspan x="1293.99" dy="17.85">Composition</tspan><tspan x="1293.99" dy="17.85">Aggregation</tspan><tspan x="1293.99" dy="17.85">Association</tspan></text><rect x="4301.44" y="8.00" width="286.15" height="131.10" rx="3" ry="3" fill="#F8FAFC" stroke="#94A3B8" stroke-width="1" stroke-linejoin="round" stroke-linecap="round"/><line x1="4307.44" y1="46.95" x2="4581.59" y2="46.95" stroke="#94A3B8" stroke-width="1.0"/><line x1="4307.44" y1="82.65" x2="4581.59" y2="82.65" stroke="#94A3B8" stroke-width="1.0"/><text x="4444.52" y="34.00" text-anchor="middle" font-family="Inter,ui-sans-serif,system-ui,-apple-system,Segoe UI,sans-serif" font-size="14" fill="#0F172A"><tspan x="4444.52" dy="0.00" font-weight="600">RustParser</tspan></text><text x="4331.44" y="69.70" text-anchor="start" font-family="Inter,ui-sans-serif,system-ui,-apple-system,Segoe UI,sans-serif" font-size="14" fill="#0F172A"><tspan x="4331.44" dy="0.00">&lt;&lt;Struct&gt;&gt;</tspan><tspan x="4331.44" dy="35.70">-parse_file(path Path, source</tspan><tspan x="4331.44" dy="17.85">str) : Result~CodeModel~</tspan></text><rect x="3260.55" y="8.00" width="286.15" height="398.85" rx="3" ry="3" fill="#F8FAFC" stroke="#94A3B8" stroke-width="1" stroke-linejoin="round" stroke-linecap="round"/><line x1="3266.55" y1="46.95" x2="3540.70" y2="46.95" stroke="#94A3B8" stroke-width="1.0"/><line x1="3266.55" y1="82.65" x2="3540.70" y2="82.65" stroke="#94A3B8" stroke-width="1.0"/><text x="3403.63" y="34.00" text-anchor="middle" font-family="Inter,ui-sans-serif,system-ui,-apple-system,Segoe UI,sans-serif" font-size="14" fill="#0F172A"><tspan x="3403.63" dy="0.00" font-weight="600">SequenceEmitter</tspan></text><text x="3290.55" y="69.70" text-anchor="start" font-family="Inter,ui-sans-serif,system-ui,-apple-system,Segoe UI,sans-serif" font-size="14" fill="#0F172A"><tspan x="3290.55" dy="0.00">&lt;&lt;Struct&gt;&gt;</tspan><tspan x="3290.55" dy="35.70">-safe_id(name str) : String$</tspan><tspan x="3290.55" dy="17.85">-format_message(call</tspan><tspan x="3290.55" dy="17.85">crate::model::CallExpr) :</tspan><tspan x="3290.55" dy="17.85">String$</tspan><tspan x="3290.55" dy="17.85">-build_known_names(model</tspan><tspan x="3290.55" dy="17.85">CodeModel) :</tspan><tspan x="3290.55" dy="17.85">HashSet~String~$</tspan><tspan x="3290.55" dy="17.85">-emit_calls(output String,</tspan><tspan x="3290.55" dy="17.85">caller_id str, func Function,</tspan><tspan x="3290.55" dy="17.85">all_functions [Function],</tspan><tspan x="3290.55" dy="17.85">visited HashSet~String~,</tspan><tspan x="3290.55" dy="17.85">id_map HashMap~String,</tspan><tspan x="3290.55" dy="17.85">String~, known</tspan><tspan x="3290.55" dy="17.85">HashSet~String~) : $</tspan><tspan x="3290.55" dy="17.85">-emit(model CodeModel,</tspan><tspan x="3290.55" dy="17.85">theme MermaidTheme) :</tspan><tspan x="3290.55" dy="17.85">String</tspan></text><rect x="2658.42" y="1646.10" width="245.61" height="220.35" rx="3" ry="3" fill="#F8FAFC" stroke="#94A3B8" stroke-width="1" stroke-linejoin="round" stroke-linecap="round"/><line x1="2664.42" y1="1685.05" x2="2898.02" y2="1685.05" stroke="#94A3B8" stroke-width="1.0"/><line x1="2664.42" y1="1827.85" x2="2898.02" y2="1827.85" stroke="#94A3B8" stroke-width="1.0"/><text x="2781.22" y="1672.10" text-anchor="middle" font-family="Inter,ui-sans-serif,system-ui,-apple-system,Segoe UI,sans-serif" font-size="14" fill="#0F172A"><tspan x="2781.22" dy="0.00" font-weight="600">TypeInfo</tspan></text><text x="2688.42" y="1707.80" text-anchor="start" font-family="Inter,ui-sans-serif,system-ui,-apple-system,Segoe UI,sans-serif" font-size="14" fill="#0F172A"><tspan x="2688.42" dy="0.00">&lt;&lt;Enumeration&gt;&gt;</tspan><tspan x="2688.42" dy="17.85">Simple</tspan><tspan x="2688.42" dy="17.85">Generic</tspan><tspan x="2688.42" dy="17.85">Optional</tspan><tspan x="2688.42" dy="17.85">Collection</tspan><tspan x="2688.42" dy="17.85">Tuple</tspan><tspan x="2688.42" dy="17.85">Reference</tspan><tspan x="2688.42" dy="35.70">+display_name() : String</tspan></text><rect x="4637.59" y="8.00" width="286.15" height="131.10" rx="3" ry="3" fill="#F8FAFC" stroke="#94A3B8" stroke-width="1" stroke-linejoin="round" stroke-linecap="round"/><line x1="4643.59" y1="46.95" x2="4917.75" y2="46.95" stroke="#94A3B8" stroke-width="1.0"/><line x1="4643.59" y1="82.65" x2="4917.75" y2="82.65" stroke="#94A3B8" stroke-width="1.0"/><text x="4780.67" y="34.00" text-anchor="middle" font-family="Inter,ui-sans-serif,system-ui,-apple-system,Segoe UI,sans-serif" font-size="14" fill="#0F172A"><tspan x="4780.67" dy="0.00" font-weight="600">TypeScriptParser</tspan></text><text x="4667.59" y="69.70" text-anchor="start" font-family="Inter,ui-sans-serif,system-ui,-apple-system,Segoe UI,sans-serif" font-size="14" fill="#0F172A"><tspan x="4667.59" dy="0.00">&lt;&lt;Struct&gt;&gt;</tspan><tspan x="4667.59" dy="35.70">-parse_file(path Path, source</tspan><tspan x="4667.59" dy="17.85">str) : Result~CodeModel~</tspan></text><rect x="3341.29" y="1150.95" width="237.50" height="184.65" rx="3" ry="3" fill="#F8FAFC" stroke="#94A3B8" stroke-width="1" stroke-linejoin="round" stroke-linecap="round"/><line x1="3347.29" y1="1189.90" x2="3572.79" y2="1189.90" stroke="#94A3B8" stroke-width="1.0"/><line x1="3347.29" y1="1297.00" x2="3572.79" y2="1297.00" stroke="#94A3B8" stroke-width="1.0"/><text x="3460.04" y="1176.95" text-anchor="middle" font-family="Inter,ui-sans-serif,system-ui,-apple-system,Segoe UI,sans-serif" font-size="14" fill="#0F172A"><tspan x="3460.04" dy="0.00" font-weight="600">Visibility</tspan></text><text x="3371.29" y="1212.65" text-anchor="start" font-family="Inter,ui-sans-serif,system-ui,-apple-system,Segoe UI,sans-serif" font-size="14" fill="#0F172A"><tspan x="3371.29" dy="0.00">&lt;&lt;Enumeration&gt;&gt;</tspan><tspan x="3371.29" dy="17.85">Public</tspan><tspan x="3371.29" dy="17.85">Private</tspan><tspan x="3371.29" dy="17.85">Protected</tspan><tspan x="3371.29" dy="17.85">Internal</tspan><tspan x="3371.29" dy="35.70">+mermaid_prefix() : str</tspan></text><rect x="2932.51" y="8.00" width="278.04" height="291.75" rx="3" ry="3" fill="#F8FAFC" stroke="#94A3B8" stroke-width="1" stroke-linejoin="round" stroke-linecap="round"/><line x1="2938.51" y1="46.95" x2="3204.55" y2="46.95" stroke="#94A3B8" stroke-width="1.0"/><line x1="2938.51" y1="82.65" x2="3204.55" y2="82.65" stroke="#94A3B8" stroke-width="1.0"/><text x="3071.53" y="34.00" text-anchor="middle" font-family="Inter,ui-sans-serif,system-ui,-apple-system,Segoe UI,sans-serif" font-size="14" fill="#0F172A"><tspan x="3071.53" dy="0.00" font-weight="600">ZenumlEmitter</tspan></text><text x="2962.51" y="69.70" text-anchor="start" font-family="Inter,ui-sans-serif,system-ui,-apple-system,Segoe UI,sans-serif" font-size="14" fill="#0F172A"><tspan x="2962.51" dy="0.00">&lt;&lt;Struct&gt;&gt;</tspan><tspan x="2962.51" dy="35.70">-format_call(call</tspan><tspan x="2962.51" dy="17.85">crate::model::CallExpr) :</tspan><tspan x="2962.51" dy="17.85">String$</tspan><tspan x="2962.51" dy="17.85">-emit_calls(output String,</tspan><tspan x="2962.51" dy="17.85">func Function, all_functions</tspan><tspan x="2962.51" dy="17.85">[Function], visited</tspan><tspan x="2962.51" dy="17.85">HashSet~String~, indent</tspan><tspan x="2962.51" dy="17.85">usize) : $</tspan><tspan x="2962.51" dy="17.85">-emit(model CodeModel,</tspan><tspan x="2962.51" dy="17.85">theme MermaidTheme) :</tspan><tspan x="2962.51" dy="17.85">String</tspan></text></svg>